# Blender 4.1.1
# www.blender.org
mtllib HexagonCell.mtl
o Circle
v 0.000000 0.000000 -1.000000
v -0.866025 0.000000 -0.500000
v -0.866025 0.000000 0.500000
v 0.000000 0.000000 1.000000
v 0.866025 0.000000 0.500000
v 0.866025 0.000000 -0.500000
v 0.000000 2.000000 -1.000000
v -0.866025 2.000000 -0.500000
v -0.866025 2.000000 0.500000
v 0.000000 2.000000 1.000000
v 0.866025 2.000000 0.500000
v 0.866025 2.000000 -0.500000
vn 0.5000 -0.0000 0.8660
vn -1.0000 -0.0000 -0.0000
vn 1.0000 -0.0000 -0.0000
vn -0.5000 -0.0000 0.8660
vn -0.5000 -0.0000 -0.8660
vn 0.5000 -0.0000 -0.8660
vn -0.0000 1.0000 -0.0000
vn -0.0000 -1.0000 -0.0000
vt 0.000000 0.000000
s 0
f 5/1/1 11/1/1 10/1/1 4/1/1
f 3/1/2 9/1/2 8/1/2 2/1/2
f 6/1/3 12/1/3 11/1/3 5/1/3
f 4/1/4 10/1/4 9/1/4 3/1/4
f 2/1/5 8/1/5 7/1/5 1/1/5
f 1/1/6 7/1/6 12/1/6 6/1/6
f 8/1/7 9/1/7 10/1/7 11/1/7 12/1/7 7/1/7
f 2/1/8 1/1/8 6/1/8 5/1/8 4/1/8 3/1/8
